<svg width="20" height="23" viewBox="0 0 20 23" fill="none" xmlns="http://www.w3.org/2000/svg">
<g clip-path="url(#clip0_213_5)">
<path d="M9.02365 22.7188C8.70322 22.6912 8.38279 22.6637 8.06237 22.6362C6.56403 22.5169 5.09277 22.2691 3.66664 21.7736C2.83173 21.48 2.03291 21.1175 1.36047 20.5119C1.02199 20.2091 0.760229 19.8466 0.62935 19.4061C0.390157 18.5895 0.660941 17.915 1.22056 17.3369C1.78469 16.7542 2.48873 16.3963 3.22887 16.1073C4.20821 15.7219 5.22365 15.4695 6.25714 15.2952C6.30227 15.286 6.3474 15.2722 6.41059 15.2539C6.36997 15.1851 6.34289 15.13 6.3113 15.075C5.58469 13.9188 4.84004 12.7717 4.13149 11.6063C3.21082 10.0969 2.86783 8.44514 3.17923 6.69248C3.62602 4.17819 5.01154 2.33836 7.31771 1.33356C9.69158 0.296649 11.9978 0.5857 14.1099 2.11354C15.5766 3.1734 16.4837 4.637 16.8493 6.42178C17.2239 8.26161 16.926 10.0051 15.9422 11.6109C15.2291 12.7763 14.489 13.9233 13.7624 15.0795C13.7308 15.13 13.7037 15.1851 13.6631 15.2585C14.0828 15.3457 14.489 15.4191 14.8906 15.5154C16.037 15.7861 17.1607 16.1256 18.1626 16.7817C18.7132 17.1442 19.1916 17.5755 19.4217 18.2316C19.6519 18.8877 19.5255 19.4841 19.1419 20.0347C18.7538 20.5899 18.2032 20.9523 17.6165 21.2551C16.4115 21.8745 15.1208 22.2141 13.794 22.4114C12.941 22.5398 12.0745 22.5949 11.217 22.6866C11.1493 22.6958 11.0816 22.7096 11.0094 22.7233H9.02365V22.7188ZM10.0346 18.617C10.0932 18.5252 10.1384 18.4656 10.179 18.4013C11.7225 15.9421 13.2659 13.4875 14.8094 11.0282C15.703 9.61052 15.9602 8.07809 15.5586 6.44931C14.8094 3.41198 11.903 1.53544 8.90631 2.15942C7.2455 2.50353 5.95928 3.43492 5.12887 4.93523C4.01866 6.94024 4.04574 8.96818 5.21914 10.9411C5.99087 12.2441 6.82579 13.5104 7.63363 14.7905C8.42793 16.0568 9.22223 17.3231 10.0346 18.617ZM10.0165 21.3928C10.4723 21.3928 10.9327 21.4111 11.3885 21.3928C12.9455 21.3148 14.4799 21.0854 15.9602 20.5761C16.6462 20.3421 17.3141 20.0576 17.8693 19.5621C18.3837 19.0987 18.4108 18.6629 17.8963 18.2086C17.5985 17.9471 17.2555 17.7177 16.8989 17.5388C15.8113 16.9882 14.6334 16.7588 13.451 16.5294C13.0087 16.4422 12.8011 16.5753 12.5799 16.9515C11.9526 18.0114 11.2802 19.0391 10.6303 20.0852C10.4588 20.3605 10.2377 20.5119 9.91272 20.4522C9.68707 20.4109 9.55168 20.2503 9.43434 20.0668C8.71676 18.9198 7.99918 17.7774 7.28612 16.6303C7.2094 16.5065 7.13719 16.4606 6.98374 16.4927C6.69039 16.5569 6.38802 16.5799 6.09016 16.6395C4.97543 16.8506 3.87424 17.1258 2.88137 17.7039C2.56997 17.8875 2.27662 18.1261 2.02389 18.3876C1.72151 18.6996 1.73956 19.0391 2.02389 19.3648C2.16379 19.5254 2.32175 19.6722 2.49325 19.7915C3.15667 20.2641 3.91035 20.5394 4.68659 20.7596C6.43315 21.2643 8.22032 21.4295 10.0255 21.402L10.0165 21.3928Z" fill="#998CD0"/>
<path d="M13.2027 7.87162C13.2027 9.64263 11.7676 11.0925 10.0255 11.0833C8.28348 11.0787 6.86187 9.61969 6.87089 7.84868C6.87992 6.08685 8.30153 4.64618 10.0346 4.64618C11.7766 4.64618 13.2027 6.10061 13.2027 7.87162ZM10.0075 9.79863C11.0319 9.83075 11.8984 8.97736 11.9346 7.90833C11.9707 6.87141 11.1312 5.98591 10.0797 5.94462C9.05522 5.90332 8.16614 6.77506 8.13906 7.84868C8.11199 8.89018 8.95593 9.7711 10.0075 9.80322V9.79863Z" fill="#998CD0"/>
</g>
<defs>
<clipPath id="clip0_213_5">
<rect width="19" height="22" fill="white" transform="translate(0.539062 0.71875)"/>
</clipPath>
</defs>
</svg>
